[img]http://img856.imageshack.us/img856/3694/harryb.png[/img]
[code]
Release Notes:
Well here we are with our release of Harry Potter and the Deathly Hallows Part 2 2011 DVDSCR XviD AC3 - VISUALiSE
Big Thanks For The Source file from ?????????   So we could do a proper release on this and not a reencode 
Decided to tag it as a screener as tbh as its more a scr than a true dvdrip but hey  

Info:
Video
ID                               : 0
Format                           : MPEG-4 Visual
Format profile                   : Advanced Simple@L5
Format settings, BVOP            : 2
Format settings, QPel            : No
Format settings, GMC             : No warppoints
Format settings, Matrix          : Default (H.263)
Muxing mode                      : Packed bitstream
Codec ID                         : XVID
Codec ID/Hint                    : XviD
Duration                         : 2h 5mn
Bit rate                         : 2 104 Kbps
Width                            : 720 pixels
Height                           : 304 pixels
Display aspect ratio             : 2.35:1
Frame rate                       : 23.976 fps
Color space                      : YUV
Chroma subsampling               : 4:2:0
Bit depth                        : 8 bits
Scan type                        : Progressive
Compression mode                 : Lossy
Bits/(Pixel*Frame)               : 0.401
Stream size                      : 1.84 GiB (90%)
Writing library                  : XviD 64

Audio
ID                               : 1
Format                           : AC-3
Format/Info                      : Audio Coding 3
Mode extension                   : CM (complete main)
Codec ID                         : 2000
Duration                         : 2h 5mn
Bit rate mode                    : Constant
Bit rate                         : 224 Kbps
Channel(s)                       : 2 channels
Channel positions                : Front: L R
Sampling rate                    : 48.0 KHz
Bit depth                        : 16 bits
Compression mode                 : Lossy
Stream size                      : 200 MiB (10%)
Alignment                        : Aligned on interleaves
Interleave, duration             : 42 ms (1.00 video frame)
[/code]
Screens:
[img]http://img5.imageshack.us/img5/2135/55007660.png[/img]
[img]http://img511.imageshack.us/img511/9012/45150883.png[/img]
[img]http://img543.imageshack.us/img543/1092/78012674.png[/img]
[img]http://img717.imageshack.us/img717/8278/95202416.png[/img]